<svg version="1.1" xmlns="http://www.w3.org/2000/svg" xmlns:xlink="http://www.w3.org/1999/xlink" width="42.8" height="57.6375" viewBox="0,0,42.8,57.6375"><g transform="translate(-218.6,-151.18125)"><g data-paper-data="{&quot;isPaintingLayer&quot;:true}" fill="#ffffff" fill-rule="nonzero" stroke="none" stroke-width="0" stroke-linecap="butt" stroke-linejoin="miter" stroke-miterlimit="10" stroke-dasharray="" stroke-dashoffset="0" style="mix-blend-mode: normal"><path d="M219.075,186.61875c0,0 7.60467,-3.31693 10.95187,-4.77688c2.83348,-1.23588 5.02841,5.407 9.22313,5.32688c4.19473,-0.08012 5.7299,-6.09212 8.58414,-5.00857c3.92029,1.48826 11.64086,4.45857 11.64086,4.45857l-17.2,9.4z"/><path d="M219.4,198.41875l-0.8,-8.6l23,8.6l0.8,10.4z"/><path d="M244,208.21875l0.2,-10.2l17.2,-9.2l-0.2,9.6z" data-paper-data="{&quot;index&quot;:null}"/><path d="M235.13633,181.80625v-15.375c0,0 2.89413,1.125 4,1.125c1.25115,0 3.125,-1.125 3.125,-1.125v15.375c0,0 -1.32995,3.375 -3.125,3.375c-1.79505,0 -4,-3.375 -4,-3.375z"/><path d="M247.01133,158.05625c0,3.79696 -3.72163,6.875 -8.3125,6.875c-4.59087,0 -8.3125,-3.07804 -8.3125,-6.875c0,-3.79696 3.72163,-6.875 8.3125,-6.875c4.59087,0 8.3125,3.07804 8.3125,6.875z"/></g></g></svg>